<?xml version="1.0" encoding="UTF-8"?>
<svg version="1.1" xmlns="http://www.w3.org/2000/svg" width="1080" height="1080">
<path d="M0 0 C1.32947449 0.1742224 2.65906853 0.34753445 3.98876953 0.52001953 C55.69434525 7.29470684 105.12546633 21.31120609 153 42 C153.81645996 42.34772461 154.63291992 42.69544922 155.47412109 43.05371094 C167.32059009 48.09947479 178.70152588 53.83024823 190 60 C190.97420898 60.52899902 191.94841797 61.05799805 192.95214844 61.60302734 C217.92223903 75.20414216 241.45164138 90.68501374 264 108 C264.53657227 108.41040527 265.07314453 108.82081055 265.62597656 109.24365234 C278.74880785 119.30701086 291.19182445 130.13653081 303.28955078 141.40722656 C304.54386901 142.57524999 305.80036745 143.74093328 307.05810547 144.90527344 C309.31387084 146.99477227 311.5637949 149.09040663 313.8125 151.1875 C314.51810059 151.84081299 315.22370117 152.49412598 315.95068359 153.16723633 C320.05041941 157.00813822 323.83399072 160.98999039 327.48803711 165.2565918 C329.18899251 167.21792274 330.99221946 169.02595047 332.875 170.8125 C336.82194851 174.69860923 340.25558955 178.90165957 343.71875 183.21875 C345.88123151 185.85520005 348.12648417 188.36868706 350.4375 190.875 C374.86628586 217.79307492 394.64888442 250.24061595 412 282 C412.48065918 282.87479004 412.96131836 283.74958008 413.45654297 284.65087891 C444.68762719 341.77670399 463.38975927 405.64308224 471.74285889 470.03778076 C471.98708653 471.90145853 472.24345082 473.76353401 472.50048828 475.62548828 C477.94776838 516.40404118 477.62170257 561.27693502 472 602 C471.8257776 603.32947449 471.65246555 604.65906853 471.47998047 605.98876953 C464.70529316 657.69434525 450.68879391 707.12546633 430 755 C429.65227539 755.81645996 429.30455078 756.63291992 428.94628906 757.47412109 C423.90052521 769.32059009 418.16975177 780.70152588 412 792 C411.47100098 792.97420898 410.94200195 793.94841797 410.39697266 794.95214844 C396.79585784 819.92223903 381.31498626 843.45164138 364 866 C363.58959473 866.53657227 363.17918945 867.07314453 362.75634766 867.62597656 C352.69298914 880.74880785 341.86346919 893.19182445 330.59277344 905.28955078 C329.42475001 906.54386901 328.25906672 907.80036745 327.09472656 909.05810547 C325.00522773 911.31387084 322.90959337 913.5637949 320.8125 915.8125 C320.15918701 916.51810059 319.50587402 917.22370117 318.83276367 917.95068359 C314.99186178 922.05041941 311.01000961 925.83399072 306.7434082 929.48803711 C304.78207726 931.18899251 302.97404953 932.99221946 301.1875 934.875 C297.30139077 938.82194851 293.09834043 942.25558955 288.78125 945.71875 C286.14479995 947.88123151 283.63131294 950.12648417 281.125 952.4375 C254.20692508 976.86628586 221.75938405 996.64888442 190 1014 C189.12520996 1014.48065918 188.25041992 1014.96131836 187.34912109 1015.45654297 C130.22329601 1046.68762719 66.35691776 1065.38975927 1.96221924 1073.74285889 C0.09854147 1073.98708653 -1.76353401 1074.24345082 -3.62548828 1074.50048828 C-44.40404118 1079.94776838 -89.27693502 1079.62170257 -130 1074 C-131.32947449 1073.8257776 -132.65906853 1073.65246555 -133.98876953 1073.47998047 C-185.69434525 1066.70529316 -235.12546633 1052.68879391 -283 1032 C-283.81645996 1031.65227539 -284.63291992 1031.30455078 -285.47412109 1030.94628906 C-297.32059009 1025.90052521 -308.70152588 1020.16975177 -320 1014 C-320.97420898 1013.47100098 -321.94841797 1012.94200195 -322.95214844 1012.39697266 C-347.92223903 998.79585784 -371.45164138 983.31498626 -394 966 C-394.53657227 965.58959473 -395.07314453 965.17918945 -395.62597656 964.75634766 C-408.74880785 954.69298914 -421.19182445 943.86346919 -433.28955078 932.59277344 C-434.54386901 931.42475001 -435.80036745 930.25906672 -437.05810547 929.09472656 C-439.31387084 927.00522773 -441.5637949 924.90959337 -443.8125 922.8125 C-444.51810059 922.15918701 -445.22370117 921.50587402 -445.95068359 920.83276367 C-450.05041941 916.99186178 -453.83399072 913.01000961 -457.48803711 908.7434082 C-459.18899251 906.78207726 -460.99221946 904.97404953 -462.875 903.1875 C-466.82194851 899.30139077 -470.25558955 895.09834043 -473.71875 890.78125 C-475.88123151 888.14479995 -478.12648417 885.63131294 -480.4375 883.125 C-504.86628586 856.20692508 -524.64888442 823.75938405 -542 792 C-542.48065918 791.12520996 -542.96131836 790.25041992 -543.45654297 789.34912109 C-574.68762719 732.22329601 -593.38975927 668.35691776 -601.74285889 603.96221924 C-601.98708653 602.09854147 -602.24345082 600.23646599 -602.50048828 598.37451172 C-607.94776838 557.59595882 -607.62170257 512.72306498 -602 472 C-601.8257776 470.67052551 -601.65246555 469.34093147 -601.47998047 468.01123047 C-594.70529316 416.30565475 -580.68879391 366.87453367 -560 319 C-559.47841309 317.77531006 -559.47841309 317.77531006 -558.94628906 316.52587891 C-553.90052521 304.67940991 -548.16975177 293.29847412 -542 282 C-541.47100098 281.02579102 -540.94200195 280.05158203 -540.39697266 279.04785156 C-526.79585784 254.07776097 -511.31498626 230.54835862 -494 208 C-493.58959473 207.46342773 -493.17918945 206.92685547 -492.75634766 206.37402344 C-482.69298914 193.25119215 -471.86346919 180.80817555 -460.59277344 168.71044922 C-459.42475001 167.45613099 -458.25906672 166.19963255 -457.09472656 164.94189453 C-455.00522773 162.68612916 -452.90959337 160.4362051 -450.8125 158.1875 C-450.15918701 157.48189941 -449.50587402 156.77629883 -448.83276367 156.04931641 C-444.99186178 151.94958059 -441.01000961 148.16600928 -436.7434082 144.51196289 C-434.78207726 142.81100749 -432.97404953 141.00778054 -431.1875 139.125 C-427.30139077 135.17805149 -423.09834043 131.74441045 -418.78125 128.28125 C-416.14479995 126.11876849 -413.63131294 123.87351583 -411.125 121.5625 C-384.20692508 97.13371414 -351.75938405 77.35111558 -320 60 C-319.12520996 59.51934082 -318.25041992 59.03868164 -317.34912109 58.54345703 C-260.22329601 27.31237281 -196.35691776 8.61024073 -131.96221924 0.25714111 C-130.09854147 0.01291347 -128.23646599 -0.24345082 -126.37451172 -0.50048828 C-85.59595882 -5.94776838 -40.72306498 -5.62170257 0 0 Z " fill="#028021" transform="translate(605,3)"/>
<path d="M0 0 C1.11985794 -0.00705963 2.23971588 -0.01411926 3.39350891 -0.02139282 C27.05858893 -0.1366141 50.42347106 -0.18882131 73.88671875 3.203125 C75.32337114 3.40405045 76.76005894 3.60472286 78.19677734 3.80517578 C114.16088053 8.88704676 152.47782562 15.70210806 185.61816406 31.19042969 C188.3901346 32.42785261 191.21215712 33.48167594 194.0546875 34.546875 C201.25111098 37.28717615 208.2305526 40.43313072 215.19921875 43.703125 C215.84435425 44.00481598 216.48948975 44.30650696 217.1541748 44.61734009 C248.49379244 59.31073049 277.45126791 77.15494671 304.88671875 98.203125 C305.51384766 98.68313965 306.14097656 99.1631543 306.78710938 99.65771484 C313.53653574 104.83993148 320.07578057 110.13069576 326.328125 115.91235352 C328.75350308 118.08385375 331.24734238 120.09636043 333.8046875 122.109375 C340.33003844 127.42551885 346.25822379 133.27249711 352.18505859 139.24072266 C354.00920622 141.07559769 355.84381748 142.89951832 357.6796875 144.72265625 C363.80240119 150.83881075 369.61543211 157.01025031 374.97241211 163.81738281 C376.99391105 166.33671551 379.13042618 168.70814046 381.32421875 171.078125 C386.55305638 176.83978028 391.24944305 182.96527274 395.88671875 189.203125 C396.62148437 190.18514893 396.62148437 190.18514893 397.37109375 191.18701172 C411.34861022 209.93400272 423.62476492 229.72088066 434.88671875 250.203125 C435.35174805 251.04665527 435.81677734 251.89018555 436.29589844 252.75927734 C447.25711949 272.78325745 456.45005536 293.62362832 463.88671875 315.203125 C464.23976074 316.21600586 464.59280273 317.22888672 464.95654297 318.27246094 C470.32951027 333.74752325 475.16691304 349.24603315 478.88671875 365.203125 C479.13518555 366.26063965 479.38365234 367.3181543 479.63964844 368.40771484 C483.14090661 383.5776148 485.68354417 398.77688321 487.69921875 414.203125 C487.80444855 415.00718781 487.90967834 415.81125061 488.01809692 416.63967896 C488.32006032 418.97262487 488.61505727 421.30631186 488.90625 423.640625 C488.99138855 424.31266464 489.0765271 424.98470428 489.16424561 425.67710876 C490.59281905 437.45928338 491.02542157 449.15242715 490.94921875 461.015625 C490.94418559 462.40169106 490.93962595 463.78775893 490.93554688 465.17382812 C490.92389828 468.51697475 490.90754304 471.86002511 490.88671875 475.203125 C453.14471298 475.43219932 415.40281224 475.60831536 377.66025149 475.71377829 C373.20066457 475.72628481 368.74107902 475.73922808 364.28149414 475.75244141 C363.39370097 475.75506451 362.50590781 475.75768761 361.59121182 475.76039021 C347.23115907 475.8038596 332.87150817 475.8826806 318.51169351 475.97465296 C303.76838403 476.06829138 289.02528446 476.12373862 274.28168982 476.14400995 C265.18969511 476.15770618 256.09883633 476.20090235 247.00719144 476.28228967 C240.76588212 476.33530241 234.5251568 476.35109211 228.28363887 476.33813877 C224.68640193 476.33175622 221.09114419 476.34127505 217.4942627 476.39517975 C192.57604812 476.75050681 192.57604812 476.75050681 184.87504578 470.32601929 C183.17963347 468.65078642 181.51169841 466.94676175 179.88671875 465.203125 C178.37251959 464.12011641 176.82985946 463.0736759 175.2421875 462.1015625 C174.55511719 461.67875 173.86804688 461.2559375 173.16015625 460.8203125 C172.12761719 460.20542969 172.12761719 460.20542969 171.07421875 459.578125 C170.30980469 459.11921875 169.54539062 458.6603125 168.7578125 458.1875 C144.09902134 443.57185888 116.85395262 433.96811089 90.20483398 423.68212891 C35.13764863 402.42078653 35.13764863 402.42078653 10.07421875 391.453125 C9.02572754 391.0001001 7.97723633 390.5470752 6.89697266 390.08032227 C-8.224566 383.31769769 -8.224566 383.31769769 -11.11328125 376.203125 C-11.85199884 370.61997522 -11.95399554 365.79758313 -9.30078125 360.765625 C0.73854001 351.15169871 15.92120294 350.84765685 28.91625977 350.88745117 C31.05342511 350.89059442 33.18917822 350.86713478 35.32617188 350.84179688 C44.885484 350.79750764 53.55890297 351.96106653 62.88671875 354.203125 C63.73806396 354.39559814 64.58940918 354.58807129 65.46655273 354.78637695 C89.72894687 360.52612389 114.10537751 373.60644392 133.95703125 388.5078125 C139.27745948 391.58656697 144.93418333 390.84513351 150.88671875 390.203125 C158.62475441 387.62377978 163.01816422 380.43644473 167.88671875 374.203125 C168.76273465 373.09092036 169.63903724 371.97894148 170.515625 370.8671875 C171.86986827 369.14635604 173.22196977 367.42397678 174.56933594 365.69775391 C178.11928728 361.15317209 181.74000823 356.67030509 185.38671875 352.203125 C191.31151469 344.93990937 197.11941954 337.59168548 202.88671875 330.203125 C208.67226753 322.79118476 214.50192412 315.42375476 220.44921875 308.140625 C224.56187718 303.09593489 228.64381415 298.03084028 232.63671875 292.890625 C233.4359375 291.86324219 234.23515625 290.83585937 235.05859375 289.77734375 C238.83857979 284.4546711 238.6841542 278.5020596 237.88671875 272.203125 C234.6284886 264.46656149 226.11630888 258.62914629 219.88671875 253.203125 C218.94699219 252.37683594 218.00726562 251.55054688 217.0390625 250.69921875 C198.96389207 235.20976734 178.50118576 222.15614328 156.88671875 212.203125 C156.19626465 211.88279297 155.50581055 211.56246094 154.79443359 211.23242188 C132.88628696 201.20302687 109.6695798 194.46075442 86.06298828 189.83642578 C83.12669131 189.25097195 80.21018152 188.60534063 77.2890625 187.94921875 C12.96284578 174.58820712 -60.55128396 189.66352054 -115.11328125 225.203125 C-125.19721239 232.03034499 -134.37805093 239.72599936 -143.11328125 248.203125 C-143.71027832 248.77434082 -144.30727539 249.34555664 -144.92236328 249.93408203 C-166.81703181 270.93486259 -183.03488806 295.89597321 -192.92578125 324.640625 C-193.19173096 325.40101074 -193.45768066 326.16139648 -193.73168945 326.94482422 C-199.26692197 343.91442978 -200.8041789 360.63552864 -200.61328125 378.390625 C-200.60707764 379.42115997 -200.60087402 380.45169495 -200.59448242 381.51345825 C-200.36667783 413.82134399 -193.75404988 441.4224574 -179.01782227 470.31567383 C-178.11328125 472.203125 -178.11328125 472.203125 -177.11328125 475.203125 C-270.17328125 475.203125 -363.23328125 475.203125 -459.11328125 475.203125 C-459.11328125 442.37138181 -459.11328125 442.37138181 -457.48828125 428.015625 C-457.35673645 426.79925858 -457.35673645 426.79925858 -457.22253418 425.55831909 C-451.81020491 375.76645549 -438.99959388 326.78053657 -418.11328125 281.203125 C-417.63391113 280.15624512 -417.15454102 279.10936523 -416.66064453 278.03076172 C-403.12963024 248.73363978 -387.13420829 221.27518649 -368.11328125 195.203125 C-367.62649902 194.53087891 -367.1397168 193.85863281 -366.63818359 193.16601562 C-359.29458041 183.05192623 -351.43705969 173.52319654 -343.11328125 164.203125 C-342.31019531 163.29949219 -341.50710938 162.39585937 -340.6796875 161.46484375 C-338.50344677 159.03257469 -336.31042857 156.61651178 -334.11328125 154.203125 C-333.28699219 153.28402344 -332.46070313 152.36492187 -331.609375 151.41796875 C-322.5791975 141.4413971 -313.29663957 131.52517497 -303.01171875 122.82421875 C-300.78428092 120.9221885 -298.64305154 118.9370478 -296.48828125 116.953125 C-290.88584883 111.90496672 -284.99793924 107.28068075 -279.02587891 102.68310547 C-277.10067849 101.1933729 -275.19030405 99.6861302 -273.28125 98.17578125 C-256.81460614 85.2462072 -239.27679624 73.612367 -221.11328125 63.203125 C-220.48486328 62.83622559 -219.85644531 62.46932617 -219.20898438 62.09130859 C-172.68737318 34.97657405 -121.85715623 17.45848409 -69.11328125 7.203125 C-68.27144287 7.03433838 -67.42960449 6.86555176 -66.56225586 6.69165039 C-58.89416089 5.21260242 -51.16973663 4.28854883 -43.41625977 3.39819336 C-41.18259405 3.14140821 -38.94967774 2.87874815 -36.71679688 2.61523438 C-24.46748652 1.18692538 -12.34331169 0.05209683 0 0 Z " fill="#FE8C00" transform="translate(523.11328125,63.796875)"/>
<path d="M0 0 C1.88332031 0.29197266 1.88332031 0.29197266 3.8046875 0.58984375 C7.89569425 1.29677641 11.94397622 2.11755341 16 3 C16.88864746 3.19045898 17.77729492 3.38091797 18.69287109 3.57714844 C65.20500591 13.69831373 107.24700674 32.59774665 142.59375 64.8125 C146.01834911 67.92577192 149.50619015 70.96487468 153 74 C147.94814502 80.82683105 142.70564472 87.49471032 137.44677734 94.16210938 C136.06082646 95.92273007 134.67981036 97.68707967 133.30078125 99.453125 C127.88984734 106.37682504 122.39489718 113.22479645 116.84082031 120.03417969 C111.932524 126.06104324 107.12253257 132.16101799 102.33837891 138.28662109 C100.08355127 141.17322823 97.82390262 144.05604189 95.5625 146.9375 C95.11914307 147.50243164 94.67578613 148.06736328 94.21899414 148.64941406 C88.85787336 155.46898303 83.42930724 162.23468522 78 169 C73.33214648 168.48714459 70.27861939 166.35065958 66.5625 163.6875 C50.83075708 152.86685023 33.95768091 144.42720255 16 138 C15.30745117 137.74637695 14.61490234 137.49275391 13.90136719 137.23144531 C-13.90102857 127.18679623 -50.35188088 123.93188334 -78 136 C-86.48730449 140.61511252 -93.45556383 147.25079035 -96.52734375 156.61328125 C-98.60540403 167.10662697 -97.24956354 177.05863081 -91.66796875 186.17578125 C-75.93861764 206.68366941 -36.42039459 215.48478479 -13.02198792 224.51266479 C-2.13724184 228.71395259 8.73244712 232.95366577 19.59572124 237.21013832 C23.77766253 238.84858229 27.96214871 240.4804027 32.1472168 242.11083984 C74.62908925 258.71658139 117.78221589 277.46929439 144 317 C144.36641602 317.54382324 144.73283203 318.08764648 145.11035156 318.64794922 C162.34070972 344.52281473 168.39191574 375.03735604 168.31567383 405.71484375 C168.31251193 408.36500188 168.33608282 411.014041 168.36132812 413.6640625 C168.41653349 428.32960722 166.4854512 442.141154 162.375 456.25 C161.99649902 457.55179199 161.99649902 457.55179199 161.61035156 458.87988281 C147.7896895 504.54887195 115.72954 540.47348025 74.09130859 563.03417969 C64.05518673 568.35926085 53.68267267 572.89485129 43.14697266 577.13330078 C41.31393982 577.87326741 39.4899366 578.63553665 37.66796875 579.40234375 C-33.62433249 607.47088499 -123.47119855 594.13333348 -191.81933594 564.41455078 C-221.42937722 551.2459463 -247.93411701 533.6556974 -272 512 C-271.41121629 508.85454286 -270.50426529 507.08856179 -268.375 504.71484375 C-267.56977905 503.80436279 -267.56977905 503.80436279 -266.74829102 502.87548828 C-266.17135498 502.23595215 -265.59441895 501.59641602 -265 500.9375 C-263.79964307 499.58043298 -262.6004278 498.2223553 -261.40234375 496.86328125 C-260.81565918 496.20021973 -260.22897461 495.5371582 -259.62451172 494.85400391 C-256.80768152 491.63924458 -254.12549541 488.31918884 -251.43359375 485 C-243.66773866 475.42668265 -235.81855428 465.922164 -227.83251953 456.53173828 C-224.26971596 452.33671818 -220.78674425 448.08085722 -217.3125 443.8125 C-214.73853379 440.68200056 -212.12419186 437.58837781 -209.5 434.5 C-201.83131058 425.46917043 -194.37885102 416.26880196 -187 407 C-182.51028557 409.34689618 -178.5771457 412.03049137 -174.5625 415.125 C-143.16954318 438.95244921 -101.10377492 460.95676771 -60.94140625 461.203125 C-60.19398666 461.20882507 -59.44656708 461.21452515 -58.67649841 461.22039795 C-57.10083399 461.2297838 -55.5251505 461.23635616 -53.94946289 461.24023438 C-51.59939918 461.24984904 -49.25024659 461.28089534 -46.90039062 461.3125 C-28.89798768 461.4387825 -10.9990107 459.43291133 3 447 C10.24064849 439.75935151 12.40878282 431.97829468 12.5625 422 C12.4949457 414.68537081 11.49591676 408.9868506 7 403 C6.55011719 402.39414062 6.10023438 401.78828125 5.63671875 401.1640625 C-8.17909629 385.38475954 -34.11580975 378.00326041 -52.9826355 370.83273315 C-70.34655286 364.22280651 -87.40378796 356.89055863 -104.49385071 349.60853577 C-110.8924717 346.88540862 -117.30616587 344.20097156 -123.73046875 341.5390625 C-126.2673819 340.4844252 -128.80409462 339.42930697 -131.34078979 338.37414551 C-132.90972106 337.72347973 -134.4797589 337.07547376 -136.05105591 336.43054199 C-151.54034175 330.0701161 -166.34646143 322.75793061 -180 313 C-180.97195313 312.31421875 -181.94390625 311.6284375 -182.9453125 310.921875 C-190.33000366 305.56170753 -197.01712091 299.63758644 -203.59570312 293.33691406 C-204.76204174 292.22654023 -205.94885453 291.13771979 -207.140625 290.0546875 C-228.60213833 269.94579056 -243.61325247 239.94063587 -248.60668945 211.15991211 C-248.87485967 209.68722316 -249.18253472 208.22131555 -249.52416992 206.76391602 C-251.65134849 197.0637155 -251.43982813 187.19446663 -251.4375 177.3125 C-251.43910126 175.87661026 -251.43910126 175.87661026 -251.44073486 174.41171265 C-251.41656183 159.40889277 -250.53612283 145.41079813 -246 131 C-245.77006348 130.25411621 -245.54012695 129.50823242 -245.30322266 128.73974609 C-239.04238651 109.0887848 -228.39731471 89.64201471 -215 74 C-214.08342394 72.88901921 -213.16814527 71.77696726 -212.25390625 70.6640625 C-178.07381079 29.43693184 -124.25889585 4.27621088 -71.32885742 -0.88769531 C-47.87484821 -2.89963574 -23.31180366 -3.68446996 0 0 Z " fill="#FEFEFE" transform="translate(591,268)"/>
<path d="M0 0 C1.32947449 0.1742224 2.65906853 0.34753445 3.98876953 0.52001953 C55.69434525 7.29470684 105.12546633 21.31120609 153 42 C153.81645996 42.34772461 154.63291992 42.69544922 155.47412109 43.05371094 C167.32059009 48.09947479 178.70152588 53.83024823 190 60 C190.97420898 60.52899902 191.94841797 61.05799805 192.95214844 61.60302734 C217.92223903 75.20414216 241.45164138 90.68501374 264 108 C264.53657227 108.41040527 265.07314453 108.82081055 265.62597656 109.24365234 C278.74880785 119.30701086 291.19182445 130.13653081 303.28955078 141.40722656 C304.54386901 142.57524999 305.80036745 143.74093328 307.05810547 144.90527344 C309.31387084 146.99477227 311.5637949 149.09040663 313.8125 151.1875 C314.51810059 151.84081299 315.22370117 152.49412598 315.95068359 153.16723633 C320.05041941 157.00813822 323.83399072 160.98999039 327.48803711 165.2565918 C329.18899251 167.21792274 330.99221946 169.02595047 332.875 170.8125 C336.82194851 174.69860923 340.25558955 178.90165957 343.71875 183.21875 C345.88123151 185.85520005 348.12648417 188.36868706 350.4375 190.875 C374.86628586 217.79307492 394.64888442 250.24061595 412 282 C412.48065918 282.87479004 412.96131836 283.74958008 413.45654297 284.65087891 C444.68762719 341.77670399 463.38975927 405.64308224 471.74285889 470.03778076 C471.98708653 471.90145853 472.24345082 473.76353401 472.50048828 475.62548828 C477.94776838 516.40404118 477.62170257 561.27693502 472 602 C471.8257776 603.32947449 471.65246555 604.65906853 471.47998047 605.98876953 C464.70529316 657.69434525 450.68879391 707.12546633 430 755 C429.65227539 755.81645996 429.30455078 756.63291992 428.94628906 757.47412109 C423.90052521 769.32059009 418.16975177 780.70152588 412 792 C411.47100098 792.97420898 410.94200195 793.94841797 410.39697266 794.95214844 C396.79585784 819.92223903 381.31498626 843.45164138 364 866 C363.58959473 866.53657227 363.17918945 867.07314453 362.75634766 867.62597656 C352.69298914 880.74880785 341.86346919 893.19182445 330.59277344 905.28955078 C329.42475001 906.54386901 328.25906672 907.80036745 327.09472656 909.05810547 C325.00522773 911.31387084 322.90959337 913.5637949 320.8125 915.8125 C320.15918701 916.51810059 319.50587402 917.22370117 318.83276367 917.95068359 C314.99186178 922.05041941 311.01000961 925.83399072 306.7434082 929.48803711 C304.78207726 931.18899251 302.97404953 932.99221946 301.1875 934.875 C297.30139077 938.82194851 293.09834043 942.25558955 288.78125 945.71875 C286.14479995 947.88123151 283.63131294 950.12648417 281.125 952.4375 C254.20692508 976.86628586 221.75938405 996.64888442 190 1014 C189.12520996 1014.48065918 188.25041992 1014.96131836 187.34912109 1015.45654297 C130.22329601 1046.68762719 66.35691776 1065.38975927 1.96221924 1073.74285889 C0.09854147 1073.98708653 -1.76353401 1074.24345082 -3.62548828 1074.50048828 C-44.40404118 1079.94776838 -89.27693502 1079.62170257 -130 1074 C-131.32947449 1073.8257776 -132.65906853 1073.65246555 -133.98876953 1073.47998047 C-185.69434525 1066.70529316 -235.12546633 1052.68879391 -283 1032 C-283.81645996 1031.65227539 -284.63291992 1031.30455078 -285.47412109 1030.94628906 C-297.32059009 1025.90052521 -308.70152588 1020.16975177 -320 1014 C-320.97420898 1013.47100098 -321.94841797 1012.94200195 -322.95214844 1012.39697266 C-347.92223903 998.79585784 -371.45164138 983.31498626 -394 966 C-394.53657227 965.58959473 -395.07314453 965.17918945 -395.62597656 964.75634766 C-408.74880785 954.69298914 -421.19182445 943.86346919 -433.28955078 932.59277344 C-434.54386901 931.42475001 -435.80036745 930.25906672 -437.05810547 929.09472656 C-439.31387084 927.00522773 -441.5637949 924.90959337 -443.8125 922.8125 C-444.51810059 922.15918701 -445.22370117 921.50587402 -445.95068359 920.83276367 C-450.05041941 916.99186178 -453.83399072 913.01000961 -457.48803711 908.7434082 C-459.18899251 906.78207726 -460.99221946 904.97404953 -462.875 903.1875 C-466.82194851 899.30139077 -470.25558955 895.09834043 -473.71875 890.78125 C-475.88123151 888.14479995 -478.12648417 885.63131294 -480.4375 883.125 C-504.86628586 856.20692508 -524.64888442 823.75938405 -542 792 C-542.48065918 791.12520996 -542.96131836 790.25041992 -543.45654297 789.34912109 C-574.68762719 732.22329601 -593.38975927 668.35691776 -601.74285889 603.96221924 C-601.98708653 602.09854147 -602.24345082 600.23646599 -602.50048828 598.37451172 C-607.94776838 557.59595882 -607.62170257 512.72306498 -602 472 C-601.8257776 470.67052551 -601.65246555 469.34093147 -601.47998047 468.01123047 C-594.70529316 416.30565475 -580.68879391 366.87453367 -560 319 C-559.47841309 317.77531006 -559.47841309 317.77531006 -558.94628906 316.52587891 C-553.90052521 304.67940991 -548.16975177 293.29847412 -542 282 C-541.47100098 281.02579102 -540.94200195 280.05158203 -540.39697266 279.04785156 C-526.79585784 254.07776097 -511.31498626 230.54835862 -494 208 C-493.58959473 207.46342773 -493.17918945 206.92685547 -492.75634766 206.37402344 C-482.69298914 193.25119215 -471.86346919 180.80817555 -460.59277344 168.71044922 C-459.42475001 167.45613099 -458.25906672 166.19963255 -457.09472656 164.94189453 C-455.00522773 162.68612916 -452.90959337 160.4362051 -450.8125 158.1875 C-450.15918701 157.48189941 -449.50587402 156.77629883 -448.83276367 156.04931641 C-444.99186178 151.94958059 -441.01000961 148.16600928 -436.7434082 144.51196289 C-434.78207726 142.81100749 -432.97404953 141.00778054 -431.1875 139.125 C-427.30139077 135.17805149 -423.09834043 131.74441045 -418.78125 128.28125 C-416.14479995 126.11876849 -413.63131294 123.87351583 -411.125 121.5625 C-384.20692508 97.13371414 -351.75938405 77.35111558 -320 60 C-319.12520996 59.51934082 -318.25041992 59.03868164 -317.34912109 58.54345703 C-260.22329601 27.31237281 -196.35691776 8.61024073 -131.96221924 0.25714111 C-130.09854147 0.01291347 -128.23646599 -0.24345082 -126.37451172 -0.50048828 C-85.59595882 -5.94776838 -40.72306498 -5.62170257 0 0 Z M-120.96044922 44.58984375 C-124.01281767 45.00172961 -127.06537494 45.33887697 -130.12890625 45.65625 C-144.56926157 47.19934249 -158.62338127 50.01809434 -172.77148438 53.26220703 C-175.65145285 53.92034865 -178.53514146 54.55597247 -181.421875 55.18359375 C-238.84792519 67.93140161 -294.79244599 93.36867177 -343 127 C-344.38275604 127.95060297 -345.76557149 128.90111952 -347.1484375 129.8515625 C-356.16959115 136.09502204 -364.84122563 142.67438331 -373.32470703 149.62890625 C-374.88571534 150.90646712 -376.4561749 152.17245566 -378.02734375 153.4375 C-383.30077915 157.69766661 -388.41434867 162.08982488 -393.41796875 166.6640625 C-394.80606169 167.91985612 -396.19990376 169.17003377 -397.62573242 170.3828125 C-403.78143841 175.6391171 -409.49778941 181.31167085 -415.2175293 187.03222656 C-416.92543056 188.73794598 -418.64118045 190.43549027 -420.35742188 192.1328125 C-426.29608137 198.04186184 -431.88444383 204.02167405 -437.07543945 210.60791016 C-439.03898641 213.04845729 -441.11018062 215.33845458 -443.25 217.625 C-462.88571968 239.23792756 -479.2861134 264.60038533 -493.77929688 289.87158203 C-494.58161504 291.27050399 -495.38750383 292.66738527 -496.19726562 294.06201172 C-520.49439034 335.98548754 -537.33514463 381.81794646 -548 429 C-548.20173828 429.8765625 -548.40347656 430.753125 -548.61132812 431.65625 C-551.41192662 443.9905932 -553.11348207 456.46110488 -554.6940918 468.99951172 C-554.92866089 470.85600342 -554.92866089 470.85600342 -555.16796875 472.75 C-555.30485107 473.85859375 -555.4417334 474.9671875 -555.58276367 476.109375 C-556 479 -556 479 -556.51855469 480.87646484 C-557.29103097 484.28366502 -557.36110971 487.74753866 -557.53515625 491.2265625 C-557.57831467 492.03774536 -557.62147308 492.84892822 -557.66593933 493.68469238 C-557.80401576 496.33120179 -557.93447333 498.97798611 -558.0625 501.625 C-558.10669067 502.53280212 -558.15088135 503.44060425 -558.19641113 504.37591553 C-559.89632382 539.83872136 -559.71654427 575.69264489 -553.56640625 610.75488281 C-552.97514381 614.14240884 -552.4235967 617.53500898 -551.875 620.9296875 C-539.14511248 697.87868976 -506.32270949 772.115079 -459 834 C-458.33822754 834.86794189 -458.33822754 834.86794189 -457.66308594 835.75341797 C-447.90273579 848.49941081 -437.45003078 860.61900662 -426.51416016 872.36816406 C-424.82906692 874.18421747 -423.15480555 876.00996436 -421.48046875 877.8359375 C-413.49756861 886.5318271 -413.49756861 886.5318271 -404.77734375 894.47265625 C-402.79646652 896.17490459 -401.00462892 897.99937196 -399.1875 899.875 C-395.33933122 903.7836508 -391.19348943 907.21331942 -386.90625 910.62890625 C-384.60309677 912.50795734 -382.37239282 914.42478871 -380.1484375 916.39453125 C-376.26332816 919.81070076 -372.24716766 923.00111596 -368.125 926.125 C-367.39522949 926.67921631 -366.66545898 927.23343262 -365.91357422 927.80444336 C-286.13985952 988.13257047 -186.06055214 1029.07596059 -84.93359375 1029.16796875 C-83.6200441 1029.17129715 -82.30649445 1029.17462555 -80.95314026 1029.17805481 C-78.18237488 1029.18399495 -75.41164042 1029.18590053 -72.64086914 1029.18530273 C-69.86541104 1029.18522229 -67.09012087 1029.19204144 -64.31469727 1029.20581055 C-39.83645718 1029.32509418 -15.43119092 1028.69756765 8.75 1024.5625 C10.11713722 1024.33700956 11.48440906 1024.11233392 12.85180664 1023.88842773 C16.57072056 1023.27531918 20.28546226 1022.639107 24 1022 C25.56638953 1021.7394828 27.1327925 1021.47904635 28.69921875 1021.21875 C46.49844543 1018.09412086 64.15784989 1013.69712378 81.27880859 1007.91748047 C83.25601844 1007.2508418 85.23587682 1006.59204248 87.21728516 1005.93798828 C145.28137605 986.75660888 199.00199825 958.07671372 246.36279297 919.33300781 C247.84788438 918.12385197 249.34701804 916.93199392 250.84765625 915.7421875 C258.28324351 909.80685864 265.16545677 903.34080544 272.07275391 896.80957031 C273.97656377 895.02200524 275.89655221 893.25397469 277.82421875 891.4921875 C283.30779671 886.47511321 288.67017426 881.53329089 293.4375 875.8125 C295.15369477 873.82171406 296.98740567 872.01610701 298.875 870.1875 C302.84334708 866.28044013 306.30246662 862.05481083 309.78515625 857.71484375 C311.77150976 855.28007181 313.82081607 852.94611216 315.9375 850.625 C320.96637051 845.01206776 325.4969158 839.03504508 330 833 C330.48065918 832.35981934 330.96131836 831.71963867 331.45654297 831.06005859 C387.1574819 756.56974499 422.9023922 664.19646428 428 571 C428.08241943 569.65639404 428.08241943 569.65639404 428.16650391 568.28564453 C429.44782057 547.23652203 429.27129886 526.23934753 428.30728149 505.18377686 C428.22898048 503.47025132 428.15363968 501.75658728 428.08163452 500.04278564 C427.58689433 488.54600645 426.31307098 477.38444329 424.34829712 466.04782104 C423.87981499 463.29336941 423.47572214 460.53110292 423.078125 457.765625 C419.07968791 430.77677431 412.57496828 404.87590059 404 379 C403.70125977 378.0821875 403.40251953 377.164375 403.09472656 376.21875 C383.40894347 315.94396024 350.08984043 261.13754325 309.125 213.0625 C308.67979004 212.53793213 308.23458008 212.01336426 307.77587891 211.47290039 C299.41877539 201.72294628 290.59890935 192.41214707 281.52050781 183.33520508 C279.99513287 181.80762584 278.47799328 180.27216418 276.9609375 178.73632812 C271.38298093 173.12731739 265.67489874 167.90293373 259.46044922 162.98681641 C256.92089136 160.93611966 254.52018821 158.77923025 252.125 156.5625 C246.36362262 151.33391457 240.23949854 146.63472956 234 142 C233.35063477 141.51547363 232.70126953 141.03094727 232.03222656 140.53173828 C188.2608452 107.99951684 140.62273452 83.45444014 89 66 C88.01805664 65.66629395 87.03611328 65.33258789 86.02441406 64.98876953 C53.587031 54.0550089 19.99484967 47.63850962 -14 44 C-14.86437683 43.90674942 -15.72875366 43.81349884 -16.61932373 43.71742249 C-32.77730501 42.02270677 -48.8240992 41.64076168 -65.0625 41.6875 C-66.31425018 41.68865814 -67.56600037 41.68981628 -68.85568237 41.69100952 C-86.38043862 41.72303877 -103.58326924 42.17536467 -120.96044922 44.58984375 Z " fill="#FEFEFE" transform="translate(605,3)"/>
<path d="M0 0 C1.11985794 -0.00705963 2.23971588 -0.01411926 3.39350891 -0.02139282 C27.05858893 -0.1366141 50.42347106 -0.18882131 73.88671875 3.203125 C75.32337114 3.40405045 76.76005894 3.60472286 78.19677734 3.80517578 C114.16088053 8.88704676 152.47782562 15.70210806 185.61816406 31.19042969 C188.3901346 32.42785261 191.21215712 33.48167594 194.0546875 34.546875 C201.25111098 37.28717615 208.2305526 40.43313072 215.19921875 43.703125 C215.84435425 44.00481598 216.48948975 44.30650696 217.1541748 44.61734009 C248.49379244 59.31073049 277.45126791 77.15494671 304.88671875 98.203125 C305.51384766 98.68313965 306.14097656 99.1631543 306.78710938 99.65771484 C313.53727128 104.84049622 320.0772492 110.13179331 326.33007812 115.91430664 C328.74436369 118.07568242 331.22650965 120.07624611 333.7734375 122.078125 C340.46994895 127.53204846 346.54265176 133.55695345 352.62451172 139.68017578 C354.5364654 141.60301251 356.45909722 143.51471879 358.3828125 145.42578125 C359.60611184 146.6503996 360.82879205 147.87563681 362.05078125 149.1015625 C362.62357819 149.67031097 363.19637512 150.23905945 363.78652954 150.82504272 C366.19557587 153.26301738 367.7878139 154.90641045 368.88671875 158.203125 C135.90671875 158.203125 -97.07328125 158.203125 -337.11328125 158.203125 C-333.38249812 153.2287475 -330.28196555 149.12035961 -325.99609375 144.85546875 C-325.53524384 144.39507706 -325.07439392 143.93468536 -324.59957886 143.46034241 C-323.63565915 142.49940851 -322.66934643 141.54086923 -321.70068359 140.5847168 C-320.24257622 139.14486619 -318.79263223 137.69717426 -317.34375 136.24804688 C-312.62745156 131.54984898 -307.84407195 126.97524654 -302.78955078 122.64086914 C-300.64011043 120.7972842 -298.56833173 118.87433526 -296.48828125 116.953125 C-290.88584883 111.90496672 -284.99793924 107.28068075 -279.02587891 102.68310547 C-277.10067849 101.1933729 -275.19030405 99.6861302 -273.28125 98.17578125 C-256.81460614 85.2462072 -239.27679624 73.612367 -221.11328125 63.203125 C-220.48486328 62.83622559 -219.85644531 62.46932617 -219.20898438 62.09130859 C-172.68737318 34.97657405 -121.85715623 17.45848409 -69.11328125 7.203125 C-68.27144287 7.03433838 -67.42960449 6.86555176 -66.56225586 6.69165039 C-58.89416089 5.21260242 -51.16973663 4.28854883 -43.41625977 3.39819336 C-41.18259405 3.14140821 -38.94967774 2.87874815 -36.71679688 2.61523438 C-24.46748652 1.18692538 -12.34331169 0.05209683 0 0 Z " fill="#E40000" transform="translate(523.11328125,63.796875)"/>
<path d="M0 0 C8.74370578 3.46190318 18.08063407 5.34524055 27.25988579 7.29068947 C28.87177788 7.63438576 28.87177788 7.63438576 30.51623344 7.98502541 C56.52938264 13.39084197 82.35196907 14.44580242 108.82238579 14.60318947 C109.78231438 14.61290779 110.74224297 14.62262611 111.7312603 14.63263893 C125.51522897 14.75114311 138.67251919 13.57115784 152.25988579 11.29068947 C153.35051323 11.12286964 154.44114067 10.95504982 155.56481743 10.78214455 C166.08903561 9.15868201 176.42370597 6.89925203 186.69738579 4.10318947 C187.61165337 3.86052345 188.52592094 3.61785744 189.4678936 3.36783791 C194.54096962 1.93055326 199.31152853 0.30760753 204.11558437 -1.8637743 C218.60359214 -8.28367218 230.81064179 -9.97665046 246.53503227 -9.73103905 C248.86351738 -9.72849221 251.19200969 -9.72994127 253.52049065 -9.73502159 C259.763386 -9.73757465 266.00468393 -9.68514417 272.24721217 -9.62185597 C278.80002191 -9.56509891 285.35287951 -9.56026874 291.90589714 -9.5496273 C302.87923239 -9.5264459 313.85201644 -9.46896462 324.82507133 -9.38826561 C336.11443058 -9.30532807 347.40363196 -9.24178369 358.6932354 -9.2036953 C359.39212371 -9.20133079 360.09101203 -9.19896627 360.81107878 -9.19653011 C364.31809403 -9.18478259 367.82511037 -9.17340974 371.33212745 -9.16222298 C400.30842071 -9.06931128 429.28414547 -8.91045756 458.25988579 -8.70931053 C457.32636269 -7.44371573 456.38987962 -6.18030397 455.45219231 -4.91779137 C454.67042515 -3.86209025 454.67042515 -3.86209025 453.87286472 -2.78506184 C451.44947057 0.33361719 448.73527699 3.10164412 445.93566704 5.88053322 C445.34875587 6.46935783 444.76184471 7.05818245 444.15714836 7.66485023 C442.92342185 8.89992679 441.68721011 10.1325255 440.44860649 11.36271095 C438.587155 13.21350482 436.73655948 15.07466435 434.88683891 16.93717384 C428.69638553 23.13414284 422.4524438 29.02428791 415.56579399 34.4501133 C413.33322128 36.23215307 411.22933537 38.09942651 409.13488579 40.04068947 C402.2149404 46.24774528 394.70179373 51.73272829 387.25988579 57.29068947 C386.53591606 57.83419044 385.81194633 58.37769142 385.06603813 58.93766212 C347.60613736 86.95459894 305.00207039 109.24346477 260.64269829 124.10709572 C257.24792254 125.24199025 257.24792254 125.24199025 254.02551079 126.73600197 C249.14121343 128.86974022 244.01451777 130.19247099 238.88488579 131.60318947 C237.22840019 132.05939674 237.22840019 132.05939674 235.53845024 132.52482033 C232.11525103 133.45833173 228.68860866 134.37768944 225.25988579 135.29068947 C224.26102348 135.55816994 223.26216118 135.82565041 222.23303032 136.10123634 C208.96479066 139.60496098 195.5940605 142.24909428 182.07238579 144.54068947 C181.34731834 144.66565804 180.6222509 144.7906266 179.87521172 144.9193821 C157.80244483 148.69078951 136.01478926 149.59985115 113.64050102 149.48630714 C110.32223113 149.47287653 107.00395977 149.47603214 103.68566704 149.47623634 C56.08467528 149.41441902 56.08467528 149.41441902 37.19738579 146.47818947 C35.99170952 146.30078224 34.78603325 146.12337502 33.54382133 145.94059181 C24.53726827 144.57831679 15.6320761 142.92774716 6.76135063 140.86344337 C3.96036568 140.22210913 1.15199454 139.62136459 -1.65808296 139.02115822 C-46.70793221 129.23914243 -89.71882745 112.07350797 -129.74011421 89.29068947 C-130.48519234 88.87109962 -131.23027046 88.45150978 -131.99792671 88.01920509 C-160.32018376 72.03000362 -187.32315326 52.83158992 -211.15027046 30.66959572 C-212.53433446 29.39826092 -213.92504844 28.1330649 -215.35534859 26.91398048 C-221.65445126 21.54136255 -227.49203273 15.72488779 -233.34216499 9.87394142 C-235.12698019 8.09133819 -236.91968537 6.31692252 -238.71277046 4.54264259 C-239.85518556 3.40315769 -240.99712993 2.26320062 -242.13855171 1.12272072 C-242.67185097 0.59660698 -243.20515022 0.07049324 -243.75461006 -0.47156334 C-246.34178322 -3.07483093 -248.20724139 -5.38902769 -249.74011421 -8.70931053 C-221.62618944 -9.09897728 -193.51215074 -9.42266368 -165.39660168 -9.67039585 C-152.33842981 -9.78694926 -139.28111463 -9.92410827 -126.22375679 -10.11189842 C-114.82678782 -10.27575435 -103.4301865 -10.39878888 -92.03228468 -10.47525102 C-86.01146356 -10.51700246 -79.99230862 -10.57752146 -73.97230911 -10.68714523 C-47.43501452 -11.15640493 -24.65594348 -10.39610641 0 0 Z " fill="#760087" transform="translate(434.74011421203613,863.7093105316162)"/>
<path d="M0 0 C98.01 0 196.02 0 297 0 C297 30.60667194 297 30.60667194 296.3125 39.125 C296.18439941 40.75912842 296.18439941 40.75912842 296.05371094 42.42626953 C292.62049565 82.09835824 284.33486308 122.8474078 270 160 C269.65904297 160.90331055 269.31808594 161.80662109 268.96679688 162.73730469 C254.77632308 200.10711088 237.07010534 236.26610339 214 269 C213.51499023 269.69319336 213.02998047 270.38638672 212.53027344 271.10058594 C205.40980637 281.24293138 198.10978035 291.32081023 189.90687275 300.62621784 C187.87319661 303.0522184 187.87319661 303.0522184 186.05807018 306.19584179 C183.12625338 310.73540244 180.03947395 315.00046888 174.73236299 316.74571252 C167.93810345 317.93987495 161.04739749 317.62829174 154.17895508 317.47583008 C151.86209318 317.47215943 149.54521617 317.47422867 147.22836304 317.48158264 C140.96134866 317.48530241 134.6975897 317.40905113 128.43132997 317.31812119 C121.87452996 317.23667668 115.31764954 317.22920395 108.76042175 317.21379089 C97.76215394 317.18018205 86.76502243 317.09690207 75.76733398 316.98071289 C64.4444774 316.86121344 53.12194463 316.76928001 41.79858398 316.71411133 C41.09952998 316.71069592 40.40047598 316.70728052 39.68023852 316.70376161 C36.17296078 316.68679497 32.66568076 316.67036705 29.15839922 316.65420687 C0.10482698 316.5196436 -28.94757057 316.28988168 -58 316 C-55.39924265 314.01737248 -52.90740203 312.33369289 -49.98046875 310.87109375 C-49.21307373 310.48123291 -48.44567871 310.09137207 -47.6550293 309.68969727 C-46.84074463 309.27647217 -46.02645996 308.86324707 -45.1875 308.4375 C0.53473197 284.74241817 35.56796214 244.99100899 51.67480469 195.9362793 C56.32501075 181.03599062 59.14836791 165.62338844 59.16796875 150.0078125 C59.17129715 149.06300018 59.17462555 148.11818787 59.17805481 147.14474487 C59.18309621 145.14956138 59.185464 143.15436954 59.18530273 141.15917969 C59.18746852 138.1684704 59.20559686 135.17814319 59.22460938 132.1875 C59.27131904 116.70797963 58.55274118 101.45350795 54.75 86.375 C54.53239014 85.49730957 54.31478027 84.61961914 54.09057617 83.71533203 C45.51366411 50.26567924 26.1274528 25.77890212 2 2 C1.34 1.34 0.68 0.68 0 0 Z " fill="#028021" transform="translate(717,539)"/>
<path d="M0 0 C1.02022224 -0.00256327 2.04044447 -0.00512655 3.09158254 -0.0077675 C6.52038176 -0.01272065 9.94874358 0.00381315 13.37750244 0.02018738 C15.83126312 0.02103332 18.28502456 0.02055916 20.73878479 0.01885986 C26.02680873 0.01817605 31.31469575 0.02670157 36.60268402 0.04357338 C44.24820976 0.06795125 51.89368179 0.0757674 59.53924218 0.07953735 C71.94352994 0.08610375 84.34775853 0.10606999 96.75201416 0.13444519 C108.80181583 0.1619809 120.85160144 0.18321687 132.90142822 0.19596863 C133.64413923 0.1967568 134.38685023 0.19754497 135.15206763 0.19835702 C138.87801873 0.20227213 142.60396995 0.20606325 146.32992125 0.20979273 C177.24198353 0.24089449 208.15397228 0.29395835 239.065979 0.36076355 C239.70955006 1.79031475 240.35114522 3.22075557 240.99191284 4.65156555 C241.34941431 5.44804567 241.70691578 6.24452579 242.07525063 7.06514168 C244.33011659 12.28990332 245.82068149 17.78917904 247.440979 23.23576355 C247.73361633 24.21818024 247.73361633 24.21818024 248.03216553 25.22044373 C259.35921675 63.43453191 266.44440914 104.35377708 266.14019775 144.29045105 C266.13421701 145.66797148 266.12880315 147.0454945 266.1239624 148.42301941 C266.11016574 151.73566968 266.09077168 155.04818051 266.065979 158.36076355 C228.32397323 158.58983787 190.58207249 158.76595391 152.83951174 158.87141684 C148.37992482 158.88392335 143.92033927 158.89686663 139.46075439 158.91007996 C138.57296123 158.91270306 137.68516806 158.91532616 136.77047207 158.91802876 C122.41041933 158.96149815 108.05076842 159.04031915 93.69095377 159.13229151 C78.94764428 159.22592993 64.20454471 159.28137717 49.46095008 159.3016485 C40.36895536 159.31534473 31.27809658 159.3585409 22.1864517 159.43992822 C15.94514237 159.49294096 9.70441705 159.50873066 3.46289913 159.49577732 C-0.13433782 159.48939477 -3.72959556 159.4989136 -7.32647705 159.5528183 C-32.24469162 159.90814536 -32.24469162 159.90814536 -39.94569397 153.48365784 C-41.64110627 151.80842497 -43.30904133 150.1044003 -44.934021 148.36076355 C-46.44822016 147.27775496 -47.99088029 146.23131445 -49.57855225 145.25920105 C-50.26562256 144.83638855 -50.95269287 144.41357605 -51.6605835 143.97795105 C-52.34894287 143.56802917 -53.03730225 143.1581073 -53.746521 142.73576355 C-54.51093506 142.2768573 -55.27534912 141.81795105 -56.06292725 141.34513855 C-80.7217184 126.72949743 -107.96678713 117.12574944 -134.61590576 106.83976746 C-189.68309112 85.57842508 -189.68309112 85.57842508 -214.746521 74.61076355 C-215.79501221 74.15773865 -216.84350342 73.70471375 -217.92376709 73.23796082 C-233.04530574 66.47533624 -233.04530574 66.47533624 -235.934021 59.36076355 C-236.67273859 53.77761377 -236.77473528 48.95522168 -234.121521 43.92326355 C-224.08219973 34.30933726 -208.89953681 34.0052954 -195.90447998 34.04508972 C-193.76731464 34.04823297 -191.63156153 34.02477333 -189.49456787 33.99943542 C-179.93525575 33.95514619 -171.26183678 35.11870508 -161.934021 37.36076355 C-161.08267578 37.55323669 -160.23133057 37.74570984 -159.35418701 37.9440155 C-135.09179288 43.68376244 -110.71536224 56.76408247 -90.8637085 71.66545105 C-85.54328027 74.74420552 -79.88655641 74.00277206 -73.934021 73.36076355 C-66.19598534 70.78141833 -61.80257553 63.59408328 -56.934021 57.36076355 C-56.0580051 56.24855891 -55.18170251 55.13658003 -54.30511475 54.02482605 C-52.95087148 52.30399459 -51.59876998 50.58161533 -50.25140381 48.85539246 C-46.70145405 44.31081266 -43.0808163 39.82787278 -39.434021 35.36076355 C-35.28185983 30.27240293 -31.17076725 25.15644873 -27.121521 19.98576355 C-26.44850952 19.12761047 -26.44850952 19.12761047 -25.76190186 18.25212097 C-23.7067946 15.62993031 -21.65695819 13.00394024 -19.6137085 10.3724823 C-18.56570068 9.03636902 -18.56570068 9.03636902 -17.496521 7.67326355 C-16.60126709 6.52277527 -16.60126709 6.52277527 -15.68792725 5.3490448 C-10.83334977 -0.15425127 -7.07290435 -0.06457071 0 0 Z " fill="#FDED00" transform="translate(747.9340209960938,380.6392364501953)"/>
<path d="M0 0 C1.16333359 -0.00696899 2.32666718 -0.01393799 3.5252533 -0.02111816 C7.25906031 -0.03841172 10.9927171 -0.04483823 14.7265625 -0.046875 C16.64122818 -0.04838562 16.64122818 -0.04838562 18.59457397 -0.04992676 C37.73498868 -0.03970707 56.38208984 0.57995278 75.3515625 3.203125 C77.7485944 3.50862584 80.14573194 3.81329878 82.54296875 4.1171875 C97.94895151 6.1373539 113.17849277 8.86410167 128.3515625 12.203125 C129.18461914 12.38423828 130.01767578 12.56535156 130.87597656 12.75195312 C188.92394386 25.6093288 245.55044916 51.52543758 294.3515625 85.203125 C295.02783691 85.66686523 295.70411133 86.13060547 296.40087891 86.60839844 C306.14510318 93.30741278 315.53184738 100.3356874 324.67626953 107.83203125 C326.23727784 109.10959212 327.8077374 110.37558066 329.37890625 111.640625 C334.65234165 115.90079161 339.76591117 120.29294988 344.76953125 124.8671875 C346.15762419 126.12298112 347.55146626 127.37315877 348.97729492 128.5859375 C355.13300091 133.8422421 360.84935191 139.51479585 366.5690918 145.23535156 C368.27699306 146.94107098 369.99274295 148.63861527 371.70898438 150.3359375 C377.64764387 156.24498684 383.23600633 162.22479905 388.42700195 168.81103516 C390.39054891 171.25158229 392.46174312 173.54157958 394.6015625 175.828125 C414.23728218 197.44105256 430.6376759 222.80351033 445.13085938 248.07470703 C445.93317754 249.47362899 446.73906633 250.87051027 447.54882812 252.26513672 C471.84595284 294.18861254 488.68670713 340.02107146 499.3515625 387.203125 C499.55330078 388.0796875 499.75503906 388.95625 499.96289062 389.859375 C502.76348912 402.1937182 504.46504457 414.66422988 506.0456543 427.20263672 C506.20203369 428.44029785 506.35841309 429.67795898 506.51953125 430.953125 C506.72485474 432.61601563 506.72485474 432.61601563 506.93432617 434.3125 C507.26826015 437.05508483 507.26826015 437.05508483 507.87011719 439.07958984 C508.64259347 442.48679002 508.71267221 445.95066366 508.88671875 449.4296875 C508.95145638 450.64646179 508.95145638 450.64646179 509.01750183 451.88781738 C509.15557826 454.53432679 509.28603583 457.18111111 509.4140625 459.828125 C509.48034851 461.18982819 509.48034851 461.18982819 509.54797363 462.57904053 C511.24788632 498.04184636 511.06810677 533.89576989 504.91796875 568.95800781 C504.32670631 572.34553384 503.7751592 575.73813398 503.2265625 579.1328125 C490.49667498 656.08181476 457.67427199 730.318204 410.3515625 792.203125 C409.68979004 793.07106689 409.68979004 793.07106689 409.01464844 793.95654297 C399.25429829 806.70253581 388.80159328 818.82213162 377.86572266 830.57128906 C376.18062942 832.38734247 374.50636805 834.21308936 372.83203125 836.0390625 C362.03832989 847.76583729 362.03832989 847.76583729 356.12890625 852.67578125 C354.14802902 854.37802959 352.35619142 856.20249696 350.5390625 858.078125 C346.69089372 861.9867758 342.54505193 865.41644442 338.2578125 868.83203125 C335.95465927 870.71108234 333.72395532 872.62791371 331.5 874.59765625 C327.61489066 878.01382576 323.59873016 881.20424096 319.4765625 884.328125 C318.74679199 884.88234131 318.01702148 885.43655762 317.26513672 886.00756836 C275.31662004 917.73074254 229.81431298 942.42030213 180.27197266 960.14990234 C177.81344458 961.03655091 175.36746915 961.94723227 172.92578125 962.87890625 C150.18782164 971.43795531 125.80419391 977.03423668 101.8515625 980.765625 C100.52727865 980.97550107 99.20305961 981.18578658 97.87890625 981.39648438 C94.77919393 981.88745172 91.67953449 982.37821417 88.57763672 982.85519409 C86.86187938 983.1233635 85.14763215 983.4012068 83.43408203 983.68313599 C75.81374036 984.91084342 68.23783883 985.771685 60.5390625 986.3125 C58.74432495 986.43863678 58.74432495 986.43863678 56.91333008 986.56732178 C43.75540523 987.41385601 30.60085649 987.50855496 17.42138672 987.46386719 C14.00874602 987.4523813 10.59641419 987.4593245 7.18378353 987.47074318 C-7.14128181 987.51146595 -21.29330742 987.28836317 -35.51580811 985.47485352 C-37.60153016 985.20910169 -39.68864461 984.96532229 -41.77783203 984.72851562 C-56.36931961 983.0418895 -70.87300042 981.16056839 -85.17919922 977.77587891 C-87.9658857 977.12949108 -90.7609945 976.53094432 -93.55859375 975.93359375 C-167.18289998 959.95259925 -236.78128429 925.17139577 -295.01123047 877.53613281 C-296.49632188 876.32697697 -297.99545554 875.13511892 -299.49609375 873.9453125 C-306.93168101 868.00998364 -313.81389427 861.54393044 -320.72119141 855.01269531 C-322.62500127 853.22513024 -324.54498971 851.45709969 -326.47265625 849.6953125 C-331.95623421 844.67823821 -337.31861176 839.73641589 -342.0859375 834.015625 C-343.80213227 832.02483906 -345.63584317 830.21923201 -347.5234375 828.390625 C-351.49178458 824.48356513 -354.95090412 820.25793583 -358.43359375 815.91796875 C-360.41994726 813.48319681 -362.46925357 811.14923716 -364.5859375 808.828125 C-369.61480801 803.21519276 -374.1453533 797.23817008 -378.6484375 791.203125 C-379.12909668 790.56294434 -379.60975586 789.92276367 -380.10498047 789.26318359 C-435.8059194 714.77286999 -471.5508297 622.39958928 -476.6484375 529.203125 C-476.70338379 528.3073877 -476.75833008 527.41165039 -476.81494141 526.48876953 C-478.09625807 505.43964703 -477.91973636 484.44247253 -476.95571899 463.38690186 C-476.87741798 461.67337632 -476.80207718 459.95971228 -476.73007202 458.24591064 C-476.23533183 446.74913145 -474.96150848 435.58756829 -472.99673462 424.25094604 C-472.52825249 421.49649441 -472.12415964 418.73422792 -471.7265625 415.96875 C-467.72812541 388.97989931 -461.22340578 363.07902559 -452.6484375 337.203125 C-452.34969727 336.2853125 -452.05095703 335.3675 -451.74316406 334.421875 C-432.05738097 274.14708524 -398.73827793 219.34066825 -357.7734375 171.265625 C-357.32822754 170.74105713 -356.88301758 170.21648926 -356.42431641 169.67602539 C-348.06721289 159.92607128 -339.24734685 150.61527207 -330.16894531 141.53833008 C-328.64357037 140.01075084 -327.12643078 138.47528918 -325.609375 136.93945312 C-320.03141843 131.33044239 -314.32333624 126.10605873 -308.10888672 121.18994141 C-305.56932886 119.13924466 -303.16862571 116.98235525 -300.7734375 114.765625 C-295.01206012 109.53703957 -288.88793604 104.83785456 -282.6484375 100.203125 C-281.99907227 99.71859863 -281.34970703 99.23407227 -280.68066406 98.73486328 C-224.07956198 56.66720333 -160.33654162 27.08184863 -91.6484375 11.203125 C-90.71499512 10.98414551 -89.78155273 10.76516602 -88.81982422 10.53955078 C-71.06734073 6.45044343 -53.08138723 4.32094486 -35.0078125 2.21875 C-34.2574321 2.13043411 -33.5070517 2.04211823 -32.7339325 1.9511261 C-21.82981031 0.7121073 -10.97386251 0.04455955 0 0 Z M-42.6484375 22.203125 C-44.91652236 22.49720886 -47.1847541 22.79016193 -49.453125 23.08203125 C-137.46375892 34.84862936 -220.64395081 72.34691481 -288.6484375 129.203125 C-289.43057617 129.85571289 -289.43057617 129.85571289 -290.22851562 130.52148438 C-306.65503244 144.27166197 -323.09403727 158.90416364 -336.984375 175.2578125 C-338.94982764 177.55545432 -340.98573621 179.78185623 -343.0234375 182.015625 C-347.75314241 187.26551742 -352.24561786 192.67713709 -356.6484375 198.203125 C-357.78539062 199.63011719 -357.78539062 199.63011719 -358.9453125 201.0859375 C-401.12753554 254.98544472 -432.4033479 318.36206498 -447.6484375 385.203125 C-447.8654834 386.14414062 -448.0825293 387.08515625 -448.30615234 388.0546875 C-451.67035931 402.84241041 -454.22016121 417.72599747 -456.19433594 432.76074219 C-456.48800227 434.98692245 -456.79260659 437.21169905 -457.11035156 439.43457031 C-459.72759288 458.03789897 -459.91354624 476.50722177 -459.8984375 495.265625 C-459.89775269 496.50904663 -459.89706787 497.75246826 -459.8963623 499.03356934 C-459.8898802 502.60190727 -459.87351164 506.17000744 -459.8515625 509.73828125 C-459.84717163 510.82035355 -459.84278076 511.90242584 -459.83825684 513.01728821 C-459.82405701 514.52478889 -459.82405701 514.52478889 -459.80957031 516.06274414 C-459.80274231 516.93822403 -459.79591431 517.81370392 -459.78887939 518.7157135 C-459.64327052 521.29463902 -459.19311907 523.68138244 -458.6484375 526.203125 C-458.51003287 527.82582304 -458.40355624 529.45146882 -458.32421875 531.078125 C-453.9717528 606.41409765 -428.70671307 682.94226143 -387.6484375 746.203125 C-386.91400257 747.36942037 -386.18178636 748.53712007 -385.453125 749.70703125 C-374.25701848 767.45308673 -361.57962385 784.26565097 -347.92567444 800.19187927 C-345.66145493 802.83336512 -343.41632906 805.48484016 -341.20385742 808.17016602 C-334.62633089 816.12059382 -327.62721183 823.50572908 -320.29516602 830.76220703 C-318.44675303 832.59216787 -316.60666418 834.43020158 -314.76757812 836.26953125 C-308.89711985 842.12257709 -302.99895941 847.86641089 -296.6484375 853.203125 C-295.63845272 854.07972756 -294.62929465 854.95728383 -293.62109375 855.8359375 C-267.82743354 877.9250049 -239.64009576 896.94377485 -209.76318359 913.05761719 C-207.7336225 914.15698231 -205.7158473 915.27557067 -203.69921875 916.3984375 C-164.41033242 938.03523246 -120.51910358 952.44988613 -76.6484375 961.203125 C-75.84164551 961.36506348 -75.03485352 961.52700195 -74.20361328 961.69384766 C-69.36797251 962.64685715 -64.52039196 963.46016546 -59.6484375 964.203125 C-58.41456299 964.39817627 -58.41456299 964.39817627 -57.15576172 964.59716797 C-46.069573 966.32006276 -35.06297794 967.42085126 -23.84765625 967.77734375 C-22.64615936 967.817491 -21.44466248 967.85763824 -20.20675659 967.89900208 C-7.22435234 968.29864006 5.75677044 968.38922699 18.74462891 968.38842773 C21.41017271 968.3898986 24.07525885 968.39540897 26.74072266 968.40893555 C47.15311162 968.51067075 67.25159491 967.85251595 87.4140625 964.453125 C88.43314697 964.28466064 89.45223145 964.11619629 90.50219727 963.94262695 C118.99130314 959.11159419 147.94055423 953.23096902 174.77294922 942.24414062 C177.59628868 941.10432625 180.44068091 940.03399127 183.29296875 938.96875 C231.72920845 920.67968477 276.75992441 894.72271197 316.61621094 861.63427734 C318.15316615 860.36674337 319.70814416 859.12113293 321.265625 857.87890625 C332.98446777 848.52803023 343.64574208 837.99969103 354.27841187 827.45150757 C355.68268951 826.05912632 357.09091697 824.67073214 358.49926758 823.2824707 C363.78726161 818.00120012 368.67623801 812.56016373 373.32299805 806.70532227 C375.39069971 804.15484996 377.55949477 801.73758008 379.7890625 799.328125 C385.01743618 793.56698094 389.71908833 787.44407463 394.3515625 781.203125 C394.84672363 780.53780762 395.34188477 779.87249023 395.85205078 779.18701172 C421.48772692 744.5984334 441.97443307 707.41176491 458.01318359 667.50878906 C459.74021468 663.24319241 461.51908826 659.0001966 463.30688477 654.75976562 C464.85800178 650.96371575 466.12119879 647.11240872 467.3515625 643.203125 C467.68542969 642.21699219 468.01929688 641.23085938 468.36328125 640.21484375 C475.07442795 619.81384962 479.91687652 598.76113382 483.7265625 577.640625 C483.84780487 576.97064484 483.96904724 576.30066467 484.09396362 575.61038208 C484.89425217 571.14856531 485.63875219 566.67969158 486.3515625 562.203125 C486.52848633 561.09855957 486.70541016 559.99399414 486.88769531 558.85595703 C490.11538203 536.84188015 490.73362695 514.60550832 490.6640625 492.390625 C490.66223969 491.16988281 490.66041687 489.94914062 490.65853882 488.69140625 C490.61250857 470.32488622 490.00955056 452.39672913 487.3515625 434.203125 C487.08815266 432.26205418 486.82475682 430.32098142 486.56188965 428.37983704 C482.04026385 395.36693249 474.48017311 362.29209462 462.3515625 331.203125 C462.01962891 330.34138672 461.68769531 329.47964844 461.34570312 328.59179688 C452.21120111 304.96157911 441.87332955 282.23416347 429.3515625 260.203125 C428.93052246 259.45514648 428.50948242 258.70716797 428.07568359 257.93652344 C418.08708524 240.24427391 406.66181719 223.35919781 394.3515625 207.203125 C393.68543945 206.32865723 393.68543945 206.32865723 393.00585938 205.43652344 C379.58462282 187.91167139 364.85003621 171.64435332 349.30947876 155.98580933 C348.31328704 154.98157945 347.31858042 153.97587368 346.32553101 152.96853638 C340.4337657 147.00100319 334.37021268 141.41230226 327.81420898 136.17333984 C325.22112478 134.09876965 322.71688062 131.94549202 320.22143555 129.75585938 C312.26345031 122.77967918 303.91230668 116.4173514 295.3515625 110.203125 C294.33255859 109.460625 294.33255859 109.460625 293.29296875 108.703125 C262.09018994 86.05309274 228.21190962 67.37594406 192.3515625 53.203125 C191.40152344 52.81640625 190.45148437 52.4296875 189.47265625 52.03125 C183.48842557 49.59635176 177.42958984 47.39127362 171.3515625 45.203125 C169.9294043 44.68939331 169.9294043 44.68939331 168.47851562 44.1652832 C138.24803646 33.36614909 107.20545839 26.9271725 75.45550537 22.49737549 C73.50028089 22.22392426 71.54622707 21.94213807 69.59228516 21.65966797 C32.98468019 16.56586416 -6.08712054 16.99833102 -42.6484375 22.203125 Z " fill="#020202" transform="translate(523.6484375,44.796875)"/>
<path d="M0 0 C27.2076664 -0.85872508 52.9329704 0.10210402 79.51971436 6.08068848 C80.62170166 6.31562012 81.72368896 6.55055176 82.85906982 6.79260254 C130.54614086 17.02882119 174.95088371 38.65618777 210.49627686 72.24865723 C213.80217122 75.37158779 217.23889076 78.33252216 220.71502686 81.26428223 C224.59896046 85.17343618 225.95008166 88.46351415 225.95721436 93.95568848 C225.98621826 95.43682129 225.98621826 95.43682129 226.01580811 96.94787598 C224.8578151 104.26055621 219.59771349 109.66827185 214.95721436 115.14318848 C213.69815691 116.64996158 212.44035977 118.15778861 211.18377686 119.66662598 C210.562771 120.41138184 209.94176514 121.1561377 209.30194092 121.92346191 C206.76103374 124.99900381 204.28748702 128.12409412 201.83221436 131.26818848 C201.38917969 131.83497314 200.94614502 132.40175781 200.48968506 132.98571777 C199.16500409 134.68298801 197.84228841 136.38177619 196.51971436 138.08068848 C190.21577813 146.16259863 183.83782416 154.17505234 177.3583374 162.11706543 C173.84825868 166.42623722 170.38191938 170.76590004 166.95721436 175.14318848 C163.06330988 180.11988229 159.14937649 185.07959501 155.20721436 190.01818848 C154.48779663 190.9222644 154.48779663 190.9222644 153.75384521 191.84460449 C152.82063454 193.01180461 151.88245718 194.17505253 150.93914795 195.33410645 C149.96146339 196.53712594 148.99629765 197.75039211 148.04168701 198.97180176 C144.14126277 203.80771936 140.67631273 206.37742584 134.46893311 207.76037598 C123.41904892 208.42204569 117.31572278 203.74579902 108.62811279 197.54260254 C102.8935833 193.56641419 96.69153516 190.31865823 90.51971436 187.08068848 C89.73644775 186.66931641 88.95318115 186.25794434 88.1461792 185.83410645 C66.63728593 174.70212579 44.56755541 167.69004267 20.22943115 167.76501465 C18.08804554 167.76817986 15.94804051 167.74459726 13.80682373 167.71936035 C1.91184865 167.66415153 -10.68208752 168.59418645 -20.48028564 176.08068848 C-23.55933795 179.28570201 -23.88848516 181.63031984 -23.85528564 186.01818848 C-23.86302002 187.03783691 -23.87075439 188.05748535 -23.87872314 189.10803223 C-23.3163366 193.30387694 -21.78805458 196.05466256 -18.43707275 198.68371582 C-11.81764961 202.4812642 -5.05663956 205.70290527 1.95721436 208.70568848 C2.57796844 208.97324951 3.19872253 209.24081055 3.83828735 209.51647949 C22.41741042 217.50745066 41.32469369 224.70922189 60.16824341 232.04632568 C71.92703894 236.62554626 83.67654175 241.22800611 95.41494751 245.85925293 C97.65015657 246.7399465 99.88622826 247.61845463 102.1232605 248.49450684 C113.34552922 252.88965961 124.49085822 257.40100672 135.47674561 262.36193848 C136.79041862 262.95266647 136.79041862 262.95266647 138.13063049 263.55532837 C157.0383502 272.22892921 174.55494178 284.66508187 189.51971436 299.08068848 C190.05306396 299.58825684 190.58641357 300.0958252 191.13592529 300.61877441 C220.9296526 329.08316643 239.32931315 366.83598122 240.59042358 408.4118042 C240.7123748 413.9971567 240.74890718 419.58177236 240.75994873 425.16833496 C240.76961433 428.11271866 240.80070695 431.05639067 240.83221436 434.00061035 C241.07277235 477.2448212 225.15428554 519.58861029 196.51971436 552.08068848 C195.68053467 553.04104004 194.84135498 554.0013916 193.97674561 554.99084473 C152.75648878 601.45211338 90.72653174 626.4161587 29.51971436 631.08068848 C26.19075872 631.21570418 22.86679405 631.2439332 19.53533936 631.24865723 C18.6096817 631.25293732 17.68402405 631.25721741 16.73031616 631.2616272 C13.74339912 631.27157849 10.75664479 631.27168381 7.76971436 631.26818848 C6.74460754 631.26725189 5.71950073 631.26631531 4.66333008 631.26535034 C-82.31920373 631.09326717 -164.6685209 604.17077846 -230.05450439 545.68615723 C-235.34899713 539.99947985 -236.16732049 534.85477627 -235.93731689 527.30725098 C-235.19038969 522.03407262 -232.90146851 519.04977027 -229.48028564 515.08068848 C-228.56187733 513.98861007 -227.64394556 512.8961308 -226.72637939 511.80334473 C-224.66860554 509.37225052 -222.58966738 506.96130951 -220.49591064 504.56115723 C-217.91113692 501.59288351 -215.39846169 498.57441706 -212.91778564 495.51818848 C-209.63452792 491.47359563 -206.29374538 487.48518647 -202.91778564 483.51818848 C-199.71284709 479.74984098 -196.55340675 475.95822574 -193.48028564 472.08068848 C-189.95145162 467.62815147 -186.29799235 463.29382869 -182.61700439 458.96740723 C-179.70024052 455.53497239 -176.82335139 452.07476033 -173.98028564 448.58068848 C-170.23602209 443.98059326 -166.4180769 439.44902752 -162.57720947 434.92980957 C-159.56973152 431.38507445 -156.60491092 427.80922032 -153.66778564 424.20568848 C-152.94462158 423.3213916 -152.22145752 422.43709473 -151.47637939 421.52600098 C-150.23416022 420.00422171 -148.99635897 418.47881157 -147.76544189 416.94787598 C-147.25884033 416.3317041 -146.75223877 415.71553223 -146.23028564 415.08068848 C-145.81262939 414.56506348 -145.39497314 414.04943848 -144.96466064 413.51818848 C-141.23611831 409.90738959 -137.87932808 408.6351757 -132.73028564 408.58068848 C-122.97099171 408.8897526 -117.31360572 414.1619234 -109.88824463 420.00842285 C-78.96061179 444.00437754 -37.48199155 463.21247588 2.06048584 463.32092285 C4.18467018 463.33058592 6.30786725 463.36165311 8.43182373 463.39318848 C19.84557523 463.48157031 35.17106129 462.51499301 44.21502686 454.59631348 C48.12205411 450.08648773 48.89715835 446.11280404 48.78533936 440.35412598 C48.27190916 435.95976751 46.14661695 433.43209727 42.81268311 430.66271973 C30.6965379 422.02156837 16.30183581 416.6001429 2.50860596 411.29833984 C-18.76842629 403.10874463 -39.7675228 394.30854211 -60.735672 385.36393738 C-66.2483652 383.01641055 -71.77642778 380.71157152 -77.32403564 378.44787598 C-99.51693952 369.37622511 -121.27082904 359.62725651 -140.48028564 345.08068848 C-141.41743408 344.37299316 -142.35458252 343.66529785 -143.32012939 342.93615723 C-149.29205948 338.2708744 -154.94899877 333.25751137 -160.48028564 328.08068848 C-161.8860083 326.7735791 -161.8860083 326.7735791 -163.32012939 325.44006348 C-195.67290195 294.6521426 -213.72077725 251.21509985 -214.89434814 206.88537598 C-215.72384436 166.44982604 -215.72384436 166.44982604 -209.48028564 147.08068848 C-209.20152588 146.17286621 -208.92276611 145.26504395 -208.63555908 144.32971191 C-200.28964538 117.64681839 -185.88976316 92.61767372 -166.13311768 72.74816895 C-164.28006362 70.87869196 -162.45710462 68.98195897 -160.63262939 67.08459473 C-152.74019833 58.94988969 -144.76224332 51.60254363 -135.48028564 45.08068848 C-134.91019775 44.67688965 -134.34010986 44.27309082 -133.75274658 43.85705566 C-94.37681761 16.14486868 -47.98985458 1.56120254 0 0 Z M-140.48028564 73.08068848 C-141.52474976 73.99471748 -142.57033901 74.90746225 -143.61700439 75.81896973 C-150.29695392 81.70036543 -156.08481677 87.9887062 -161.48028564 95.08068848 C-161.90664307 95.62676758 -162.33300049 96.17284668 -162.77227783 96.73547363 C-179.59565396 118.31275554 -190.26033521 142.23441186 -195.48028564 169.08068848 C-195.65914307 169.97288086 -195.83800049 170.86507324 -196.02227783 171.78430176 C-196.60383034 175.96986784 -196.6804507 180.07823409 -196.71856689 184.29943848 C-196.72840607 185.18626816 -196.73824524 186.07309784 -196.74838257 186.98680115 C-197.24381071 213.81424827 -197.24381071 213.81424827 -192.48028564 240.08068848 C-192.23359131 240.9195459 -191.98689697 241.75840332 -191.73272705 242.62268066 C-183.64979302 269.10929938 -170.33142498 290.86446664 -151.48028564 311.08068848 C-150.79450439 311.82061035 -150.10872314 312.56053223 -149.40216064 313.32287598 C-140.69103264 322.38890179 -130.65373568 329.82489398 -120.16778564 336.70568848 C-119.55419189 337.11222656 -118.94059814 337.51876465 -118.30841064 337.93762207 C-104.5301001 346.77084983 -89.70798438 353.33501824 -74.60528564 359.51818848 C-72.73009961 360.29297962 -70.85527011 361.06863414 -68.98077393 361.84509277 C-66.07230992 363.04945007 -63.16351522 364.252956 -60.25332642 365.45314026 C-53.58255065 368.2043957 -46.92572318 370.98714755 -40.27716064 373.79162598 C-23.74607175 380.75961413 -7.20279611 387.64620705 9.51971436 394.14318848 C56.39462821 412.39258794 56.39462821 412.39258794 65.20330811 429.31506348 C66.71709903 433.64531409 67.05817815 437.22020934 67.01971436 441.76818848 C67.01399414 442.5562085 67.00827393 443.34422852 67.00238037 444.15612793 C66.73582794 452.95415309 64.29726546 460.44267818 58.26971436 467.01818848 C43.83161699 479.83822321 24.51880584 481.44875534 6.09197998 481.3963623 C3.78615556 481.39321095 1.48163074 481.41673087 -0.82403564 481.4420166 C-14.82870806 481.50271676 -28.22048543 479.49843219 -41.60528564 475.26818848 C-42.4445459 475.00812012 -43.28380615 474.74805176 -44.14849854 474.48010254 C-76.31152792 464.31787239 -104.57740119 447.07408894 -131.48028564 427.08068848 C-135.28419084 430.78741361 -138.79213947 434.65939679 -142.23028564 438.70568848 C-142.75614258 439.32177979 -143.28199951 439.93787109 -143.8237915 440.57263184 C-147.67722844 445.10102078 -151.45468251 449.68749547 -155.20294189 454.30334473 C-157.76232836 457.42465481 -160.36632687 460.50509846 -162.98028564 463.58068848 C-167.03047204 468.34974816 -171.02380806 473.15981438 -174.97637939 478.01037598 C-182.78457181 487.58485217 -190.63196582 497.12483908 -198.63677979 506.5357666 C-202.30552676 510.85499095 -205.89956855 515.23111164 -209.46075439 519.63928223 C-211.27837818 521.83660305 -213.17130957 523.92415921 -215.10528564 526.01818848 C-217.71127604 528.69159966 -217.71127604 528.69159966 -217.38262939 531.02209473 C-211.46646016 544.51915614 -187.62320269 556.38570354 -175.48028564 564.08068848 C-174.86201904 564.47433594 -174.24375244 564.8679834 -173.60675049 565.27355957 C-153.00047693 578.24866615 -130.53518824 588.34143762 -107.48028564 596.08068848 C-106.08954834 596.54765137 -106.08954834 596.54765137 -104.67071533 597.02404785 C-54.05348085 613.63089148 1.02269827 618.16913796 53.51971436 609.08068848 C54.72079834 608.8770166 55.92188232 608.67334473 57.15936279 608.46350098 C110.31170228 599.12690136 161.23044403 571.34645282 192.95721436 527.01818848 C210.26434829 501.77940766 222.55722816 470.9277586 222.72283936 440.03381348 C222.72853943 439.18252869 222.7342395 438.3312439 222.7401123 437.4541626 C222.74951204 435.65569275 222.75607615 433.85720606 222.75994873 432.05871582 C222.76953958 429.37951202 222.80056264 426.70111535 222.83221436 424.02209473 C223.06656222 385.87654339 211.76755898 349.29650645 185.51971436 321.08068848 C184.67449219 320.16972412 184.67449219 320.16972412 183.81219482 319.24035645 C175.15096991 310.0141155 166.07922697 302.05561305 155.51971436 295.08068848 C154.83570557 294.62742187 154.15169678 294.17415527 153.44696045 293.70715332 C133.51080506 280.66723837 111.71915306 271.94852983 89.58221436 263.39318848 C87.09986393 262.42683256 84.61779514 261.45978902 82.13616943 260.49157715 C77.21167683 258.57113185 72.28569988 256.65454453 67.35858154 254.74084473 C53.04987668 249.17996962 38.77240247 243.53903471 24.50628662 237.86987305 C23.1938135 237.34848072 21.88115403 236.82755719 20.56829834 236.30712891 C8.22463437 231.41391092 -4.06441107 226.43516438 -16.10528564 220.83068848 C-17.3400061 220.26644165 -17.3400061 220.26644165 -18.59967041 219.6907959 C-29.30249895 214.57937773 -37.10850606 207.89708661 -41.85528564 196.89318848 C-43.65441179 185.91851898 -43.25020581 176.31333916 -37.04278564 166.90100098 C-28.38509388 155.87076868 -13.65158291 151.47636813 -0.23028564 149.83068848 C43.43638508 145.23343354 87.43388471 159.64928285 122.97283936 184.81799316 C123.76174561 185.37647949 124.55065186 185.93496582 125.36346436 186.51037598 C126.06664795 187.02583984 126.76983154 187.54130371 127.49432373 188.0723877 C129.45453039 189.26139863 129.45453039 189.26139863 131.5993042 188.93762207 C133.87466395 187.92230136 134.86185404 186.89032322 136.40252686 184.94006348 C136.92459717 184.28844238 137.44666748 183.63682129 137.98455811 182.9654541 C138.53240967 182.26098145 139.08026123 181.55650879 139.64471436 180.83068848 C140.22092529 180.10559082 140.79713623 179.38049316 141.39080811 178.63342285 C145.63255641 173.27715753 149.78659001 167.8531319 153.92987061 162.42053223 C157.40374838 157.90489805 161.02498539 153.50894121 164.62860107 149.09680176 C170.01507725 142.49397342 175.27668313 135.79760256 180.51971436 129.08068848 C182.30960987 126.78763054 184.10104824 124.49579842 185.89471436 122.20568848 C186.33766846 121.63970947 186.78062256 121.07373047 187.23699951 120.49060059 C189.79122953 117.23972095 192.37775816 114.0183418 194.99627686 110.81896973 C195.58231689 110.10273438 196.16835693 109.38649902 196.77215576 108.64855957 C197.90936915 107.26223321 199.04951994 105.87830949 200.1930542 104.49719238 C202.93719371 101.15476417 205.41868227 97.88151388 207.51971436 94.08068848 C156.87028653 44.90577092 88.80782713 17.78448496 18.20721436 17.89318848 C17.41769379 17.89412506 16.62817322 17.89506165 15.81472778 17.89602661 C-41.35171414 18.042295 -97.3878902 34.02640238 -140.48028564 73.08068848 Z " fill="#020302" transform="translate(536.4802856445313,247.9193115234375)"/>
<path d="M0 0 C0.9348057 0.00291284 1.8696114 0.00582568 2.83274454 0.00882679 C3.81773508 0.00797237 4.80272563 0.00711794 5.81756437 0.00623763 C9.14498438 0.00457984 12.47235487 0.01010906 15.7997703 0.01555592 C18.17427183 0.01583775 20.54877345 0.01568013 22.92327493 0.01511341 C28.71909823 0.01485526 34.51490509 0.01920658 40.31072462 0.02555107 C47.05221928 0.03268501 53.79371156 0.03419496 60.53520947 0.03533924 C72.55845849 0.03753008 84.58170074 0.04419103 96.60494608 0.05364186 C108.2872374 0.06281515 119.96952688 0.06989639 131.65182108 0.07414967 C132.37142429 0.07441239 133.0910275 0.07467512 133.83243687 0.0749458 C137.44232739 0.0762508 141.05221793 0.07751452 144.66210848 0.0787577 C174.62914307 0.08913131 204.59616976 0.10682462 234.56319803 0.12908131 C234.36231577 0.85983372 234.1614335 1.59058613 233.9544639 2.34348255 C233.68822214 3.31517887 233.42198038 4.28687519 233.14767069 5.28801686 C232.88491342 6.24564427 232.62215616 7.20327168 232.35143656 8.1899181 C231.12753989 12.753552 230.02630194 17.34400643 228.93819803 21.94158131 C228.61335428 23.29413014 228.61335428 23.29413014 228.28194803 24.67400318 C228.0731199 25.55249928 227.86429178 26.43099537 227.64913553 27.33611256 C227.46399393 28.11446461 227.27885233 28.89281666 227.08810037 29.69475514 C225.74957623 35.90239431 225.3772637 41.78619862 225.32491678 48.11736256 C225.31503229 49.08477375 225.3051478 50.05218495 225.29496378 51.04891163 C224.99129421 88.50199082 229.43463111 119.47060533 246.65865701 153.24163014 C247.56319803 155.12908131 247.56319803 155.12908131 248.56319803 158.12908131 C155.50319803 158.12908131 62.44319803 158.12908131 -33.43680197 158.12908131 C-33.43680197 125.29733812 -33.43680197 125.29733812 -31.81180197 110.94158131 C-31.72410544 110.13067036 -31.6364089 109.31975941 -31.5460549 108.4842754 C-19.75899693 0.04675177 -19.75899693 0.04675177 0 0 Z " fill="#FDEC00" transform="translate(97.43680197000504,380.8709186911583)"/>
<path d="M0 0 C69.3 0 138.6 0 210 0 C206.63607113 12.33440584 206.63607113 12.33440584 204.6328125 16.44921875 C202.85340347 20.19873523 201.13097774 23.95611873 199.4921875 27.76953125 C186.88610911 56.93804247 172.33831943 84.97997783 154 111 C153.51499023 111.69319336 153.02998047 112.38638672 152.53027344 113.10058594 C145.40980637 123.24293138 138.10978035 133.32081023 129.90687275 142.62621784 C127.87319661 145.0522184 127.87319661 145.0522184 126.05807018 148.19584179 C123.12625338 152.73540244 120.03947395 157.00046888 114.73236299 158.74571252 C107.93810345 159.93987495 101.04739749 159.62829174 94.17895508 159.47583008 C91.86209318 159.47215943 89.54521617 159.47422867 87.22836304 159.48158264 C80.96134866 159.48530241 74.6975897 159.40905113 68.43132997 159.31812119 C61.87452996 159.23667668 55.31764954 159.22920395 48.76042175 159.21379089 C37.76215394 159.18018205 26.76502243 159.09690207 15.76733398 158.98071289 C4.4444774 158.86121344 -6.87805537 158.76928001 -18.20141602 158.71411133 C-18.90047002 158.71069592 -19.59952402 158.70728052 -20.31976148 158.70376161 C-23.82703922 158.68679497 -27.33431924 158.67036705 -30.84160078 158.65420687 C-59.89517302 158.5196436 -88.94757057 158.28988168 -118 158 C-115.39924265 156.01737248 -112.90740203 154.33369289 -109.98046875 152.87109375 C-108.82937622 152.28630249 -108.82937622 152.28630249 -107.6550293 151.68969727 C-106.84074463 151.27647217 -106.02645996 150.86324707 -105.1875 150.4375 C-59.45490807 126.73704922 -24.444735 86.98913292 -8.32299805 37.93188477 C-5.45951609 28.76381572 -3.68686352 19.44163896 -2 10 C-1.34 6.7 -0.68 3.4 0 0 Z " fill="#004BFD" transform="translate(777,697)"/>
<path d="M0 0 C89.1 0 178.2 0 270 0 C266.29608579 4.93855228 262.63986677 9.71822139 258.625 14.375 C255.35370805 18.20329571 252.12581976 22.05091907 249 26 C245.47116597 30.45253701 241.81770671 34.78685979 238.13671875 39.11328125 C234.47712531 43.41987463 230.89298902 47.78323515 227.33203125 52.171875 C225.62135248 54.24646701 223.8944803 56.29423552 222.13671875 58.328125 C221.40195312 59.18180664 221.40195312 59.18180664 220.65234375 60.05273438 C219.70805392 61.14685153 218.75916244 62.23702223 217.8046875 63.32226562 C213.0383243 68.85490256 209.42610519 73.88883419 209.5 81.5 C209.4896875 82.5621875 209.479375 83.624375 209.46875 84.71875 C211.92448874 99.88654811 232.07871851 110.98043862 243.51757812 119.23681641 C264.90490425 134.42753919 288.32781277 147.93027564 313 157 C313 157.33 313 157.66 313 158 C284.39283187 158.32731098 255.78594508 158.57405139 227.17728043 158.72537041 C213.89295108 158.79750523 200.61024327 158.89581074 187.32666016 159.05615234 C175.74621375 159.19586911 164.16661087 159.28605556 152.58534503 159.31723893 C146.45485405 159.3354632 140.32677573 159.37816134 134.19705963 159.48022079 C128.42114977 159.57560578 122.64863387 159.60449554 116.87201118 159.58350754 C114.75796332 159.58734382 112.64379631 159.61499457 110.53043175 159.66887665 C93.77974764 160.07482477 93.77974764 160.07482477 88.18828583 155.01150894 C85.53439405 152.1588893 83.31739147 149.10476424 81.21380377 145.83121896 C79.22069505 142.82429266 76.91408924 140.0984951 74.625 137.3125 C63.68863397 123.36164551 53.36659319 109.05184507 44 94 C43.63132813 93.41428223 43.26265625 92.82856445 42.8828125 92.22509766 C26.85337127 66.68183204 13.70030897 39.33812887 2.625 11.3125 C2.34470947 10.60673828 2.06441895 9.90097656 1.77563477 9.17382812 C0.51071254 5.84989593 0 3.62129375 0 0 Z " fill="#004BFD" transform="translate(92,697)"/>
<path d="M0 0 C1.20113779 -0.00692307 2.40227558 -0.01384613 3.63981149 -0.02097899 C6.98594111 -0.03416138 10.3300178 -0.02032981 13.67595209 0.00468981 C17.31112305 0.02527568 20.94618203 0.01107408 24.58137482 0.00122488 C30.95620193 -0.01122779 37.33069337 -0.00133814 43.70548153 0.02305412 C53.18452532 0.05922381 62.6633569 0.06107278 72.14245712 0.05580219 C88.08671093 0.04791325 104.0308157 0.06798812 119.97502613 0.10390663 C135.76566142 0.13938813 151.55623466 0.16249812 167.34690952 0.16902351 C168.32809934 0.16943595 169.30928917 0.16984839 170.32021201 0.17027333 C175.30301896 0.17230328 180.28582597 0.1741116 185.26863303 0.17583458 C220.57749566 0.18844276 255.88627718 0.2288828 291.19509411 0.28565025 C325.50075378 0.3407413 359.80639126 0.38325058 394.1120863 0.40869713 C395.16922025 0.40948629 396.22635421 0.41027544 397.31552252 0.41108851 C407.93153141 0.41899952 418.54754046 0.42665442 429.16354966 0.43412167 C450.79029186 0.44933965 472.41703261 0.46626716 494.0437727 0.48422813 C495.03817241 0.48505187 496.03257211 0.48587561 497.05710515 0.48672432 C563.48065799 0.54194418 629.90416584 0.63701723 696.32766247 0.73828697 C696.65766247 1.39828697 696.98766247 2.05828697 697.32766247 2.73828697 C696.40664996 2.73865328 696.40664996 2.73865328 695.46703114 2.73902698 C628.64515673 2.76574471 561.82328537 2.79738934 495.00142956 2.85492516 C494.00388761 2.85578266 493.00634565 2.85664017 491.97857516 2.85752367 C470.30134141 2.8761876 448.62410854 2.89573993 426.94687642 2.91620792 C416.31696932 2.92623945 405.68706204 2.93607457 395.05715466 2.9458065 C393.99932906 2.94677831 392.94150347 2.94775012 391.85162256 2.94875137 C357.54030195 2.98018049 323.2289892 2.99863116 288.91765668 3.01037944 C253.66980728 3.02251673 218.4219908 3.04769157 183.17416335 3.08936311 C178.20011981 3.09523754 173.2260761 3.10096232 168.25203228 3.10659599 C167.27303143 3.10770945 166.29403058 3.10882291 165.28536304 3.10997011 C149.50130019 3.1275366 133.71726258 3.1312851 117.93319127 3.12991618 C102.07991624 3.12883434 86.22670616 3.14219091 70.37345579 3.17045125 C60.94499555 3.18681533 51.51668202 3.19194357 42.08821282 3.18125872 C35.79833882 3.17521906 29.50859217 3.18354508 23.21874803 3.20377927 C19.62946975 3.21490784 16.04049084 3.21957515 12.45121124 3.20679942 C8.59295358 3.19321109 4.73518899 3.21021021 0.87695217 3.23047829 C-0.81110061 3.21712272 -0.81110061 3.21712272 -2.53325546 3.20349735 C-4.06902829 3.21913124 -4.06902829 3.21913124 -5.63582683 3.23508096 C-6.51867716 3.23570488 -7.40152749 3.2363288 -8.31113087 3.23697163 C-11.4139327 3.89573741 -12.64559611 5.37079453 -14.67233753 7.73828697 C-15.33233753 7.40828697 -15.99233753 7.07828697 -16.67233753 6.73828697 C-12.36918725 -0.4410648 -7.93478702 -0.11139587 0 0 Z " fill="#F76500" transform="translate(196.67233753204346,221.2617130279541)"/>
<path d="M0 0 C35.31 0 70.62 0 107 0 C105.81555916 4.73776334 103.96298869 6.46786727 100 9 C88.64884966 14.6853438 77.14747133 15.41288089 64.625 15.375 C63.5638649 15.37368576 63.5638649 15.37368576 62.48129272 15.37234497 C40.47285376 15.28265395 20.10063592 9.92457384 0 1 C0 0.67 0 0.34 0 0 Z " fill="#004CF3" transform="translate(477,697)"/>
<path d="M0 0 C0 0.33 0 0.66 0 1 C-29.04094796 1.2004277 -58.0819599 1.38376374 -87.12314415 1.54658794 C-89.80410165 1.561679 -92.48505878 1.57683452 -95.16601562 1.59204102 C-96.16558933 1.59770733 -96.16558933 1.59770733 -97.18535645 1.60348812 C-107.98640087 1.6650292 -118.78734963 1.73719551 -129.58830039 1.8132638 C-140.66463673 1.89103597 -151.74100538 1.95722197 -162.81747401 2.01323253 C-169.04168171 2.0450765 -175.26575641 2.08227017 -181.48984909 2.13199425 C-187.34196975 2.17858148 -193.19399849 2.21121902 -199.04626274 2.2329216 C-201.19983144 2.24341018 -203.35338172 2.25909892 -205.50687218 2.28024101 C-208.43589544 2.30823743 -211.36440939 2.31791872 -214.29354858 2.32279968 C-215.15540437 2.33542916 -216.01726016 2.34805863 -216.90523279 2.36107081 C-219.2712307 2.35352612 -219.2712307 2.35352612 -223 2 C-223.66 1.01 -224.32 0.02 -225 -1 C-196.40197982 -1.17721156 -167.80391305 -1.34288786 -139.20574665 -1.49477577 C-125.92757218 -1.56556747 -112.64943916 -1.64015497 -99.37133789 -1.72363281 C-87.80015703 -1.79636987 -76.22896153 -1.86203146 -64.65769261 -1.91914403 C-58.52900044 -1.94964206 -52.40037468 -1.98371872 -46.27175331 -2.02626419 C-40.50580851 -2.06618025 -34.73989167 -2.09665074 -28.97385597 -2.11981392 C-26.85542325 -2.1300006 -24.73700402 -2.14366599 -22.61861801 -2.16103554 C-19.73014122 -2.18420355 -16.84187693 -2.19494595 -13.95332336 -2.20254517 C-12.69115674 -2.21712011 -12.69115674 -2.21712011 -11.4034918 -2.2319895 C-7.13982261 -2.2292505 -3.88959554 -1.97913969 0 0 Z " fill="#5B10A3" transform="translate(410,856)"/>
<path d="M0 0 C0.66 0.33 1.32 0.66 2 1 C-10.54 13.54 -23.08 26.08 -36 39 C-36.66 38.67 -37.32 38.34 -38 38 C-15.3115702 13.40669454 -15.3115702 13.40669454 -4.5859375 4.3671875 C-2.97717593 2.98032408 -1.48334641 1.51930632 0 0 Z " fill="#C00000" transform="translate(225,182)"/>
</svg>
